<mxfile host="app.diagrams.net" modified="2023-08-23T00:40:29.724Z" agent="Mozilla/5.0 (Windows NT 10.0; Win64; x64) AppleWebKit/537.36 (KHTML, like Gecko) Chrome/116.0.0.0 Safari/537.36" etag="cEZWoY6qxqWedoflHaRw" version="21.6.8" type="device">
  <diagram name="Page-1" id="BsBtJZdpCbDv1z-KSwcp">
    <mxGraphModel dx="2029" dy="1120" grid="1" gridSize="10" guides="0" tooltips="1" connect="0" arrows="1" fold="1" page="1" pageScale="1" pageWidth="850" pageHeight="1100" math="0" shadow="0">
      <root>
        <mxCell id="0" />
        <mxCell id="1" parent="0" />
        <mxCell id="kdKn8kybxeGl5Rz80cqv-15" value="" style="rounded=0;whiteSpace=wrap;html=1;" parent="1" vertex="1">
          <mxGeometry x="150" y="640" width="320" height="320" as="geometry" />
        </mxCell>
        <mxCell id="kdKn8kybxeGl5Rz80cqv-3" value="" style="ellipse;whiteSpace=wrap;html=1;aspect=fixed;fillColor=none;" parent="1" vertex="1">
          <mxGeometry x="210" y="700" width="210" height="210" as="geometry" />
        </mxCell>
        <mxCell id="PWxH9HgvDrEOuIeiDxhd-13" value="" style="rounded=0;whiteSpace=wrap;html=1;fillColor=none;" parent="1" vertex="1">
          <mxGeometry x="240" y="420" width="110" height="110" as="geometry" />
        </mxCell>
        <mxCell id="k1mLw7IAGcoa_0EAjVNv-19" value="" style="ellipse;whiteSpace=wrap;html=1;aspect=fixed;fillColor=none;" parent="1" vertex="1">
          <mxGeometry x="263" y="444" width="60" height="60" as="geometry" />
        </mxCell>
        <mxCell id="k1mLw7IAGcoa_0EAjVNv-22" value="&lt;font style=&quot;font-size: 9px;&quot;&gt;1.9cm&lt;/font&gt;" style="text;html=1;align=center;verticalAlign=middle;resizable=0;points=[];autosize=1;strokeColor=none;fillColor=none;" parent="1" vertex="1">
          <mxGeometry x="283" y="417" width="50" height="30" as="geometry" />
        </mxCell>
        <mxCell id="PWxH9HgvDrEOuIeiDxhd-4" value="" style="rounded=0;whiteSpace=wrap;html=1;" parent="1" vertex="1">
          <mxGeometry x="730" y="105" width="10" height="255" as="geometry" />
        </mxCell>
        <mxCell id="PWxH9HgvDrEOuIeiDxhd-5" value="" style="rounded=0;whiteSpace=wrap;html=1;" parent="1" vertex="1">
          <mxGeometry x="620" y="105" width="120" height="10" as="geometry" />
        </mxCell>
        <mxCell id="PWxH9HgvDrEOuIeiDxhd-9" value="" style="rounded=0;whiteSpace=wrap;html=1;rotation=0;" parent="1" vertex="1">
          <mxGeometry x="490" y="420" width="110" height="100.25" as="geometry" />
        </mxCell>
        <mxCell id="PWxH9HgvDrEOuIeiDxhd-10" value="" style="rounded=0;whiteSpace=wrap;html=1;" parent="1" vertex="1">
          <mxGeometry x="590" y="420" width="10" height="100" as="geometry" />
        </mxCell>
        <mxCell id="PWxH9HgvDrEOuIeiDxhd-12" value="5mm" style="text;html=1;align=center;verticalAlign=middle;resizable=0;points=[];autosize=1;strokeColor=none;fillColor=none;fontSize=6;" parent="1" vertex="1">
          <mxGeometry x="718" y="363" width="40" height="20" as="geometry" />
        </mxCell>
        <mxCell id="PWxH9HgvDrEOuIeiDxhd-34" value="" style="ellipse;whiteSpace=wrap;html=1;aspect=fixed;fillColor=#000000;" parent="1" vertex="1">
          <mxGeometry x="279" y="460" width="5" height="5" as="geometry" />
        </mxCell>
        <mxCell id="PWxH9HgvDrEOuIeiDxhd-35" value="" style="ellipse;whiteSpace=wrap;html=1;aspect=fixed;fillColor=#000000;" parent="1" vertex="1">
          <mxGeometry x="301" y="460" width="5" height="5" as="geometry" />
        </mxCell>
        <mxCell id="PWxH9HgvDrEOuIeiDxhd-36" value="" style="ellipse;whiteSpace=wrap;html=1;aspect=fixed;fillColor=#000000;" parent="1" vertex="1">
          <mxGeometry x="301" y="485" width="5" height="5" as="geometry" />
        </mxCell>
        <mxCell id="PWxH9HgvDrEOuIeiDxhd-37" value="" style="ellipse;whiteSpace=wrap;html=1;aspect=fixed;fillColor=#000000;" parent="1" vertex="1">
          <mxGeometry x="279" y="485" width="5" height="5" as="geometry" />
        </mxCell>
        <mxCell id="PWxH9HgvDrEOuIeiDxhd-44" value="" style="endArrow=classic;html=1;rounded=0;entryX=1.038;entryY=0.524;entryDx=0;entryDy=0;entryPerimeter=0;" parent="1" target="PWxH9HgvDrEOuIeiDxhd-35" edge="1">
          <mxGeometry width="50" height="50" relative="1" as="geometry">
            <mxPoint x="400" y="440" as="sourcePoint" />
            <mxPoint x="430" y="360" as="targetPoint" />
          </mxGeometry>
        </mxCell>
        <mxCell id="PWxH9HgvDrEOuIeiDxhd-45" value="2.85mm&lt;br&gt;(diameter)" style="text;html=1;align=center;verticalAlign=middle;resizable=0;points=[];autosize=1;strokeColor=none;fillColor=none;" parent="1" vertex="1">
          <mxGeometry x="385" y="419" width="80" height="40" as="geometry" />
        </mxCell>
        <mxCell id="PWxH9HgvDrEOuIeiDxhd-46" value="" style="endArrow=classic;startArrow=classic;html=1;rounded=0;" parent="1" edge="1">
          <mxGeometry width="50" height="50" relative="1" as="geometry">
            <mxPoint x="740" y="100" as="sourcePoint" />
            <mxPoint x="620" y="100" as="targetPoint" />
          </mxGeometry>
        </mxCell>
        <mxCell id="PWxH9HgvDrEOuIeiDxhd-47" value="6cm" style="text;html=1;align=center;verticalAlign=middle;resizable=0;points=[];autosize=1;strokeColor=none;fillColor=none;" parent="1" vertex="1">
          <mxGeometry x="580" y="80" width="50" height="30" as="geometry" />
        </mxCell>
        <mxCell id="PWxH9HgvDrEOuIeiDxhd-50" value="" style="endArrow=classic;startArrow=classic;html=1;rounded=0;" parent="1" edge="1">
          <mxGeometry width="50" height="50" relative="1" as="geometry">
            <mxPoint x="330" y="800" as="sourcePoint" />
            <mxPoint x="330" y="640" as="targetPoint" />
          </mxGeometry>
        </mxCell>
        <mxCell id="PWxH9HgvDrEOuIeiDxhd-54" value="" style="ellipse;whiteSpace=wrap;html=1;aspect=fixed;fillColor=#000000;" parent="1" vertex="1">
          <mxGeometry x="550" y="460" width="5" height="5" as="geometry" />
        </mxCell>
        <mxCell id="PWxH9HgvDrEOuIeiDxhd-55" value="" style="ellipse;whiteSpace=wrap;html=1;aspect=fixed;fillColor=#000000;" parent="1" vertex="1">
          <mxGeometry x="530" y="480" width="5" height="5" as="geometry" />
        </mxCell>
        <mxCell id="PWxH9HgvDrEOuIeiDxhd-56" value="" style="ellipse;whiteSpace=wrap;html=1;aspect=fixed;fillColor=#000000;" parent="1" vertex="1">
          <mxGeometry x="530" y="460" width="5" height="5" as="geometry" />
        </mxCell>
        <mxCell id="PWxH9HgvDrEOuIeiDxhd-57" value="" style="ellipse;whiteSpace=wrap;html=1;aspect=fixed;fillColor=#000000;" parent="1" vertex="1">
          <mxGeometry x="550" y="480" width="5" height="5" as="geometry" />
        </mxCell>
        <mxCell id="PWxH9HgvDrEOuIeiDxhd-59" value="Side View" style="text;html=1;align=center;verticalAlign=middle;resizable=0;points=[];autosize=1;strokeColor=none;fillColor=none;" parent="1" vertex="1">
          <mxGeometry x="640" y="50" width="80" height="30" as="geometry" />
        </mxCell>
        <mxCell id="PWxH9HgvDrEOuIeiDxhd-60" value="Top View" style="text;html=1;align=center;verticalAlign=middle;resizable=0;points=[];autosize=1;strokeColor=none;fillColor=none;" parent="1" vertex="1">
          <mxGeometry x="260" y="390" width="70" height="30" as="geometry" />
        </mxCell>
        <mxCell id="PWxH9HgvDrEOuIeiDxhd-61" value="Bottom view" style="text;html=1;align=center;verticalAlign=middle;resizable=0;points=[];autosize=1;strokeColor=none;fillColor=none;" parent="1" vertex="1">
          <mxGeometry x="500" y="390" width="90" height="30" as="geometry" />
        </mxCell>
        <mxCell id="PWxH9HgvDrEOuIeiDxhd-62" value="" style="endArrow=classic;html=1;rounded=0;entryX=-0.2;entryY=0.2;entryDx=0;entryDy=0;entryPerimeter=0;" parent="1" target="PWxH9HgvDrEOuIeiDxhd-56" edge="1">
          <mxGeometry width="50" height="50" relative="1" as="geometry">
            <mxPoint x="450" y="440" as="sourcePoint" />
            <mxPoint x="380" y="340" as="targetPoint" />
          </mxGeometry>
        </mxCell>
        <mxCell id="k1mLw7IAGcoa_0EAjVNv-1" value="" style="endArrow=classic;startArrow=classic;html=1;rounded=0;" parent="1" edge="1">
          <mxGeometry width="50" height="50" relative="1" as="geometry">
            <mxPoint x="350" y="540" as="sourcePoint" />
            <mxPoint x="240" y="540" as="targetPoint" />
          </mxGeometry>
        </mxCell>
        <mxCell id="k1mLw7IAGcoa_0EAjVNv-2" value="6cm" style="text;html=1;align=center;verticalAlign=middle;resizable=0;points=[];autosize=1;strokeColor=none;fillColor=none;" parent="1" vertex="1">
          <mxGeometry x="270" y="540" width="50" height="30" as="geometry" />
        </mxCell>
        <mxCell id="k1mLw7IAGcoa_0EAjVNv-3" value="" style="endArrow=classic;startArrow=classic;html=1;rounded=0;" parent="1" edge="1">
          <mxGeometry width="50" height="50" relative="1" as="geometry">
            <mxPoint x="230" y="530" as="sourcePoint" />
            <mxPoint x="230" y="420" as="targetPoint" />
          </mxGeometry>
        </mxCell>
        <mxCell id="k1mLw7IAGcoa_0EAjVNv-4" value="6cm" style="text;html=1;align=center;verticalAlign=middle;resizable=0;points=[];autosize=1;strokeColor=none;fillColor=none;" parent="1" vertex="1">
          <mxGeometry x="190" y="460" width="50" height="30" as="geometry" />
        </mxCell>
        <mxCell id="k1mLw7IAGcoa_0EAjVNv-6" value="" style="endArrow=classic;startArrow=classic;html=1;rounded=0;" parent="1" edge="1">
          <mxGeometry width="50" height="50" relative="1" as="geometry">
            <mxPoint x="750" y="360" as="sourcePoint" />
            <mxPoint x="750" y="119" as="targetPoint" />
          </mxGeometry>
        </mxCell>
        <mxCell id="k1mLw7IAGcoa_0EAjVNv-7" value="12.1cm" style="text;html=1;align=center;verticalAlign=middle;resizable=0;points=[];autosize=1;strokeColor=none;fillColor=none;" parent="1" vertex="1">
          <mxGeometry x="740" y="210" width="60" height="30" as="geometry" />
        </mxCell>
        <mxCell id="k1mLw7IAGcoa_0EAjVNv-8" value="" style="endArrow=classic;startArrow=classic;html=1;rounded=0;" parent="1" edge="1">
          <mxGeometry width="50" height="50" relative="1" as="geometry">
            <mxPoint x="600" y="543" as="sourcePoint" />
            <mxPoint x="490" y="543" as="targetPoint" />
          </mxGeometry>
        </mxCell>
        <mxCell id="k1mLw7IAGcoa_0EAjVNv-9" value="6cm" style="text;html=1;align=center;verticalAlign=middle;resizable=0;points=[];autosize=1;strokeColor=none;fillColor=none;" parent="1" vertex="1">
          <mxGeometry x="530" y="540" width="50" height="30" as="geometry" />
        </mxCell>
        <mxCell id="k1mLw7IAGcoa_0EAjVNv-10" value="1/8&quot;" style="text;html=1;align=center;verticalAlign=middle;resizable=0;points=[];autosize=1;strokeColor=none;fillColor=none;fontSize=6;" parent="1" vertex="1">
          <mxGeometry x="581" y="524" width="30" height="20" as="geometry" />
        </mxCell>
        <mxCell id="k1mLw7IAGcoa_0EAjVNv-11" value="" style="endArrow=classic;startArrow=classic;html=1;rounded=0;strokeWidth=0;" parent="1" edge="1">
          <mxGeometry width="50" height="50" relative="1" as="geometry">
            <mxPoint x="590" y="526" as="sourcePoint" />
            <mxPoint x="600" y="526" as="targetPoint" />
          </mxGeometry>
        </mxCell>
        <mxCell id="k1mLw7IAGcoa_0EAjVNv-12" value="" style="endArrow=classic;startArrow=classic;html=1;rounded=0;" parent="1" edge="1">
          <mxGeometry width="50" height="50" relative="1" as="geometry">
            <mxPoint x="610" y="520" as="sourcePoint" />
            <mxPoint x="610" y="420" as="targetPoint" />
          </mxGeometry>
        </mxCell>
        <mxCell id="k1mLw7IAGcoa_0EAjVNv-13" value="6cm" style="text;html=1;align=center;verticalAlign=middle;resizable=0;points=[];autosize=1;strokeColor=none;fillColor=none;" parent="1" vertex="1">
          <mxGeometry x="600" y="450" width="50" height="30" as="geometry" />
        </mxCell>
        <mxCell id="k1mLw7IAGcoa_0EAjVNv-23" value="&lt;font style=&quot;font-size: 6px;&quot;&gt;1.575mm&lt;/font&gt;" style="text;html=1;align=center;verticalAlign=middle;resizable=0;points=[];autosize=1;strokeColor=none;fillColor=none;fontSize=6;" parent="1" vertex="1">
          <mxGeometry x="300" y="493" width="50" height="20" as="geometry" />
        </mxCell>
        <mxCell id="k1mLw7IAGcoa_0EAjVNv-24" value="" style="endArrow=classic;startArrow=classic;html=1;rounded=0;strokeWidth=0;" parent="1" edge="1">
          <mxGeometry width="50" height="50" relative="1" as="geometry">
            <mxPoint x="315" y="500" as="sourcePoint" />
            <mxPoint x="305" y="490" as="targetPoint" />
          </mxGeometry>
        </mxCell>
        <mxCell id="kdKn8kybxeGl5Rz80cqv-1" value="" style="endArrow=classic;startArrow=classic;html=1;rounded=0;strokeWidth=0;" parent="1" edge="1">
          <mxGeometry width="50" height="50" relative="1" as="geometry">
            <mxPoint x="276" y="490" as="sourcePoint" />
            <mxPoint x="276" y="460" as="targetPoint" />
          </mxGeometry>
        </mxCell>
        <mxCell id="kdKn8kybxeGl5Rz80cqv-2" value="14mm" style="text;html=1;align=center;verticalAlign=middle;resizable=0;points=[];autosize=1;strokeColor=none;fillColor=none;fontSize=10;" parent="1" vertex="1">
          <mxGeometry x="280" y="780" width="50" height="30" as="geometry" />
        </mxCell>
        <mxCell id="kdKn8kybxeGl5Rz80cqv-4" value="" style="ellipse;whiteSpace=wrap;html=1;aspect=fixed;fillColor=#000000;" parent="1" vertex="1">
          <mxGeometry x="260" y="750" width="20" height="20" as="geometry" />
        </mxCell>
        <mxCell id="kdKn8kybxeGl5Rz80cqv-5" value="" style="ellipse;whiteSpace=wrap;html=1;aspect=fixed;fillColor=#000000;" parent="1" vertex="1">
          <mxGeometry x="350" y="750" width="20" height="20" as="geometry" />
        </mxCell>
        <mxCell id="kdKn8kybxeGl5Rz80cqv-6" value="" style="ellipse;whiteSpace=wrap;html=1;aspect=fixed;fillColor=#000000;" parent="1" vertex="1">
          <mxGeometry x="260" y="840" width="20" height="20" as="geometry" />
        </mxCell>
        <mxCell id="kdKn8kybxeGl5Rz80cqv-7" value="" style="ellipse;whiteSpace=wrap;html=1;aspect=fixed;fillColor=#000000;" parent="1" vertex="1">
          <mxGeometry x="350" y="840" width="20" height="20" as="geometry" />
        </mxCell>
        <mxCell id="kdKn8kybxeGl5Rz80cqv-8" value="" style="endArrow=classic;startArrow=classic;html=1;rounded=0;" parent="1" edge="1">
          <mxGeometry width="50" height="50" relative="1" as="geometry">
            <mxPoint x="290" y="860" as="sourcePoint" />
            <mxPoint x="290" y="750" as="targetPoint" />
          </mxGeometry>
        </mxCell>
        <mxCell id="kdKn8kybxeGl5Rz80cqv-9" value="" style="endArrow=classic;startArrow=classic;html=1;rounded=0;" parent="1" edge="1">
          <mxGeometry width="50" height="50" relative="1" as="geometry">
            <mxPoint x="260" y="840" as="sourcePoint" />
            <mxPoint x="260" y="770" as="targetPoint" />
          </mxGeometry>
        </mxCell>
        <mxCell id="kdKn8kybxeGl5Rz80cqv-10" value="8mm" style="text;html=1;align=center;verticalAlign=middle;resizable=0;points=[];autosize=1;strokeColor=none;fillColor=none;fontSize=10;" parent="1" vertex="1">
          <mxGeometry x="220" y="790" width="50" height="30" as="geometry" />
        </mxCell>
        <mxCell id="kdKn8kybxeGl5Rz80cqv-11" value="" style="endArrow=classic;startArrow=classic;html=1;rounded=0;" parent="1" edge="1">
          <mxGeometry width="50" height="50" relative="1" as="geometry">
            <mxPoint x="380" y="850" as="sourcePoint" />
            <mxPoint x="380" y="760" as="targetPoint" />
          </mxGeometry>
        </mxCell>
        <mxCell id="kdKn8kybxeGl5Rz80cqv-12" value="11mm" style="text;html=1;align=center;verticalAlign=middle;resizable=0;points=[];autosize=1;strokeColor=none;fillColor=none;fontSize=10;" parent="1" vertex="1">
          <mxGeometry x="340" y="790" width="50" height="30" as="geometry" />
        </mxCell>
        <mxCell id="kdKn8kybxeGl5Rz80cqv-13" value="35mm" style="text;html=1;align=center;verticalAlign=middle;resizable=0;points=[];autosize=1;strokeColor=none;fillColor=none;" parent="1" vertex="1">
          <mxGeometry x="280" y="710" width="60" height="30" as="geometry" />
        </mxCell>
        <mxCell id="kdKn8kybxeGl5Rz80cqv-17" value="" style="endArrow=classic;startArrow=classic;html=1;rounded=0;" parent="1" edge="1">
          <mxGeometry width="50" height="50" relative="1" as="geometry">
            <mxPoint x="740" y="90" as="sourcePoint" />
            <mxPoint x="670" y="90" as="targetPoint" />
          </mxGeometry>
        </mxCell>
        <mxCell id="kdKn8kybxeGl5Rz80cqv-21" value="35mm" style="text;html=1;align=center;verticalAlign=middle;resizable=0;points=[];autosize=1;strokeColor=none;fillColor=none;" parent="1" vertex="1">
          <mxGeometry x="671" y="66" width="60" height="30" as="geometry" />
        </mxCell>
        <mxCell id="kdKn8kybxeGl5Rz80cqv-22" value="Top View" style="text;html=1;align=center;verticalAlign=middle;resizable=0;points=[];autosize=1;strokeColor=none;fillColor=none;" parent="1" vertex="1">
          <mxGeometry x="280" y="610" width="70" height="30" as="geometry" />
        </mxCell>
        <mxCell id="kdKn8kybxeGl5Rz80cqv-23" value="" style="endArrow=classic;startArrow=classic;html=1;rounded=0;" parent="1" edge="1">
          <mxGeometry width="50" height="50" relative="1" as="geometry">
            <mxPoint x="470" y="970" as="sourcePoint" />
            <mxPoint x="150" y="970" as="targetPoint" />
          </mxGeometry>
        </mxCell>
        <mxCell id="kdKn8kybxeGl5Rz80cqv-24" value="6cm" style="text;html=1;align=center;verticalAlign=middle;resizable=0;points=[];autosize=1;strokeColor=none;fillColor=none;" parent="1" vertex="1">
          <mxGeometry x="280" y="970" width="50" height="30" as="geometry" />
        </mxCell>
        <mxCell id="kdKn8kybxeGl5Rz80cqv-25" value="" style="endArrow=classic;startArrow=classic;html=1;rounded=0;" parent="1" edge="1">
          <mxGeometry width="50" height="50" relative="1" as="geometry">
            <mxPoint x="140" y="960" as="sourcePoint" />
            <mxPoint x="140" y="640" as="targetPoint" />
          </mxGeometry>
        </mxCell>
        <mxCell id="kdKn8kybxeGl5Rz80cqv-26" value="6cm" style="text;html=1;align=center;verticalAlign=middle;resizable=0;points=[];autosize=1;strokeColor=none;fillColor=none;" parent="1" vertex="1">
          <mxGeometry x="100" y="800" width="50" height="30" as="geometry" />
        </mxCell>
        <mxCell id="33aO2TNAjWirLoOw_Xwe-1" value="" style="rounded=0;whiteSpace=wrap;html=1;" vertex="1" parent="1">
          <mxGeometry x="360" y="100" width="110" height="200" as="geometry" />
        </mxCell>
        <mxCell id="33aO2TNAjWirLoOw_Xwe-2" value="" style="rounded=0;whiteSpace=wrap;html=1;" vertex="1" parent="1">
          <mxGeometry x="360" y="100" width="110" height="10" as="geometry" />
        </mxCell>
        <mxCell id="33aO2TNAjWirLoOw_Xwe-3" value="" style="ellipse;whiteSpace=wrap;html=1;aspect=fixed;fillColor=#000000;" vertex="1" parent="1">
          <mxGeometry x="380" y="140" width="10" height="10" as="geometry" />
        </mxCell>
        <mxCell id="33aO2TNAjWirLoOw_Xwe-4" value="" style="endArrow=classic;startArrow=classic;html=1;rounded=0;strokeColor=#FF0000;" edge="1" parent="1">
          <mxGeometry width="50" height="50" relative="1" as="geometry">
            <mxPoint x="477" y="300" as="sourcePoint" />
            <mxPoint x="477" y="111" as="targetPoint" />
          </mxGeometry>
        </mxCell>
        <mxCell id="33aO2TNAjWirLoOw_Xwe-6" value="" style="ellipse;whiteSpace=wrap;html=1;aspect=fixed;fillColor=#000000;" vertex="1" parent="1">
          <mxGeometry x="440" y="140" width="10" height="10" as="geometry" />
        </mxCell>
        <mxCell id="33aO2TNAjWirLoOw_Xwe-7" value="" style="ellipse;whiteSpace=wrap;html=1;aspect=fixed;fillColor=#000000;" vertex="1" parent="1">
          <mxGeometry x="440" y="200" width="10" height="10" as="geometry" />
        </mxCell>
        <mxCell id="33aO2TNAjWirLoOw_Xwe-12" value="1/8&quot;" style="text;html=1;align=center;verticalAlign=middle;resizable=0;points=[];autosize=1;strokeColor=none;fillColor=none;fontSize=6;" vertex="1" parent="1">
          <mxGeometry x="370" y="214" width="30" height="20" as="geometry" />
        </mxCell>
        <mxCell id="33aO2TNAjWirLoOw_Xwe-8" value="" style="ellipse;whiteSpace=wrap;html=1;aspect=fixed;fillColor=#000000;" vertex="1" parent="1">
          <mxGeometry x="380" y="200" width="10" height="10" as="geometry" />
        </mxCell>
        <mxCell id="33aO2TNAjWirLoOw_Xwe-9" value="" style="endArrow=classic;startArrow=classic;html=1;rounded=0;" edge="1" parent="1">
          <mxGeometry width="50" height="50" relative="1" as="geometry">
            <mxPoint x="445" y="200" as="sourcePoint" />
            <mxPoint x="445" y="150" as="targetPoint" />
          </mxGeometry>
        </mxCell>
        <mxCell id="33aO2TNAjWirLoOw_Xwe-10" value="&lt;font style=&quot;font-size: 7px;&quot;&gt;31mm&lt;/font&gt;" style="text;html=1;align=center;verticalAlign=middle;resizable=0;points=[];autosize=1;strokeColor=none;fillColor=none;fontSize=10;" vertex="1" parent="1">
          <mxGeometry x="435" y="160" width="40" height="30" as="geometry" />
        </mxCell>
        <mxCell id="33aO2TNAjWirLoOw_Xwe-11" value="" style="endArrow=classic;startArrow=classic;html=1;rounded=0;strokeWidth=0;" edge="1" parent="1">
          <mxGeometry width="50" height="50" relative="1" as="geometry">
            <mxPoint x="380" y="216" as="sourcePoint" />
            <mxPoint x="390" y="216" as="targetPoint" />
          </mxGeometry>
        </mxCell>
        <mxCell id="33aO2TNAjWirLoOw_Xwe-13" value="" style="endArrow=classic;startArrow=classic;html=1;rounded=0;" edge="1" parent="1">
          <mxGeometry width="50" height="50" relative="1" as="geometry">
            <mxPoint x="360" y="145" as="sourcePoint" />
            <mxPoint x="380" y="145" as="targetPoint" />
          </mxGeometry>
        </mxCell>
        <mxCell id="33aO2TNAjWirLoOw_Xwe-14" value="1.5cm" style="text;html=1;align=center;verticalAlign=middle;resizable=0;points=[];autosize=1;strokeColor=none;fillColor=none;fontSize=7;" vertex="1" parent="1">
          <mxGeometry x="351" y="144" width="40" height="20" as="geometry" />
        </mxCell>
        <mxCell id="33aO2TNAjWirLoOw_Xwe-15" value="" style="endArrow=classic;startArrow=classic;html=1;rounded=0;" edge="1" parent="1">
          <mxGeometry width="50" height="50" relative="1" as="geometry">
            <mxPoint x="470" y="310" as="sourcePoint" />
            <mxPoint x="360" y="310" as="targetPoint" />
          </mxGeometry>
        </mxCell>
        <mxCell id="33aO2TNAjWirLoOw_Xwe-16" value="6cm" style="text;html=1;align=center;verticalAlign=middle;resizable=0;points=[];autosize=1;strokeColor=none;fillColor=none;" vertex="1" parent="1">
          <mxGeometry x="390" y="310" width="50" height="30" as="geometry" />
        </mxCell>
        <mxCell id="33aO2TNAjWirLoOw_Xwe-17" value="Front View (x-ray)" style="text;html=1;align=center;verticalAlign=middle;resizable=0;points=[];autosize=1;strokeColor=none;fillColor=none;" vertex="1" parent="1">
          <mxGeometry x="355" y="50" width="120" height="30" as="geometry" />
        </mxCell>
        <mxCell id="33aO2TNAjWirLoOw_Xwe-18" value="" style="ellipse;whiteSpace=wrap;html=1;aspect=fixed;fillColor=#000000;" vertex="1" parent="1">
          <mxGeometry x="406" y="163" width="20" height="20" as="geometry" />
        </mxCell>
        <mxCell id="33aO2TNAjWirLoOw_Xwe-19" value="1cm" style="text;html=1;align=center;verticalAlign=middle;resizable=0;points=[];autosize=1;strokeColor=none;fillColor=none;fontSize=7;" vertex="1" parent="1">
          <mxGeometry x="395" y="145" width="40" height="20" as="geometry" />
        </mxCell>
        <mxCell id="33aO2TNAjWirLoOw_Xwe-20" value="" style="endArrow=classic;startArrow=classic;html=1;rounded=0;strokeWidth=0;" edge="1" parent="1">
          <mxGeometry width="50" height="50" relative="1" as="geometry">
            <mxPoint x="406" y="160" as="sourcePoint" />
            <mxPoint x="426" y="160" as="targetPoint" />
          </mxGeometry>
        </mxCell>
        <mxCell id="33aO2TNAjWirLoOw_Xwe-21" value="" style="endArrow=classic;startArrow=classic;html=1;rounded=0;" edge="1" parent="1">
          <mxGeometry width="50" height="50" relative="1" as="geometry">
            <mxPoint x="389" y="201" as="sourcePoint" />
            <mxPoint x="409" y="181" as="targetPoint" />
          </mxGeometry>
        </mxCell>
        <mxCell id="33aO2TNAjWirLoOw_Xwe-22" value="1cm" style="text;html=1;align=center;verticalAlign=middle;resizable=0;points=[];autosize=1;strokeColor=none;fillColor=none;fontSize=7;" vertex="1" parent="1">
          <mxGeometry x="368" y="178" width="40" height="20" as="geometry" />
        </mxCell>
        <mxCell id="33aO2TNAjWirLoOw_Xwe-23" value="" style="endArrow=classic;startArrow=classic;html=1;rounded=0;strokeWidth=0;" edge="1" parent="1">
          <mxGeometry width="50" height="50" relative="1" as="geometry">
            <mxPoint x="355" y="98" as="sourcePoint" />
            <mxPoint x="355" y="110" as="targetPoint" />
          </mxGeometry>
        </mxCell>
        <mxCell id="33aO2TNAjWirLoOw_Xwe-30" value="&lt;span style=&quot;font-size: 8px;&quot;&gt;1cm&lt;/span&gt;" style="text;html=1;align=center;verticalAlign=middle;resizable=0;points=[];autosize=1;strokeColor=none;fillColor=none;fontSize=10;fontStyle=1;fontColor=#FF0000;" vertex="1" parent="1">
          <mxGeometry x="434" y="109" width="40" height="30" as="geometry" />
        </mxCell>
        <mxCell id="33aO2TNAjWirLoOw_Xwe-24" value="1/8&quot;" style="text;html=1;align=center;verticalAlign=middle;resizable=0;points=[];autosize=1;strokeColor=none;fillColor=none;" vertex="1" parent="1">
          <mxGeometry x="320" y="90" width="40" height="30" as="geometry" />
        </mxCell>
        <mxCell id="33aO2TNAjWirLoOw_Xwe-25" value="" style="endArrow=classic;startArrow=classic;html=1;rounded=0;" edge="1" parent="1">
          <mxGeometry width="50" height="50" relative="1" as="geometry">
            <mxPoint x="440" y="144" as="sourcePoint" />
            <mxPoint x="390" y="144" as="targetPoint" />
          </mxGeometry>
        </mxCell>
        <mxCell id="33aO2TNAjWirLoOw_Xwe-26" value="&lt;font style=&quot;font-size: 8px;&quot;&gt;31mm&lt;/font&gt;" style="text;html=1;align=center;verticalAlign=middle;resizable=0;points=[];autosize=1;strokeColor=none;fillColor=none;fontSize=10;" vertex="1" parent="1">
          <mxGeometry x="389" y="121" width="50" height="30" as="geometry" />
        </mxCell>
        <mxCell id="33aO2TNAjWirLoOw_Xwe-29" value="" style="endArrow=classic;startArrow=classic;html=1;rounded=0;strokeColor=#FF0000;" edge="1" parent="1">
          <mxGeometry width="50" height="50" relative="1" as="geometry">
            <mxPoint x="445" y="140" as="sourcePoint" />
            <mxPoint x="445" y="110" as="targetPoint" />
          </mxGeometry>
        </mxCell>
        <mxCell id="33aO2TNAjWirLoOw_Xwe-31" value="" style="ellipse;whiteSpace=wrap;html=1;aspect=fixed;fillColor=#FF0000;" vertex="1" parent="1">
          <mxGeometry x="411" y="260" width="10" height="10" as="geometry" />
        </mxCell>
        <mxCell id="33aO2TNAjWirLoOw_Xwe-32" value="" style="endArrow=classic;startArrow=classic;html=1;rounded=0;fontColor=#FF0000;strokeColor=#FF0000;" edge="1" parent="1">
          <mxGeometry width="50" height="50" relative="1" as="geometry">
            <mxPoint x="416" y="257" as="sourcePoint" />
            <mxPoint x="416" y="186" as="targetPoint" />
          </mxGeometry>
        </mxCell>
        <mxCell id="33aO2TNAjWirLoOw_Xwe-38" value="8mm" style="text;html=1;align=center;verticalAlign=middle;resizable=0;points=[];autosize=1;strokeColor=none;fillColor=none;fontSize=6;fontColor=#FF0000;" vertex="1" parent="1">
          <mxGeometry x="395" y="270" width="40" height="20" as="geometry" />
        </mxCell>
        <mxCell id="33aO2TNAjWirLoOw_Xwe-33" value="&lt;font style=&quot;font-size: 8px;&quot;&gt;6cm&lt;/font&gt;" style="text;html=1;align=center;verticalAlign=middle;resizable=0;points=[];autosize=1;strokeColor=none;fillColor=none;fontSize=8;fontColor=#FF0000;" vertex="1" parent="1">
          <mxGeometry x="406" y="209" width="40" height="20" as="geometry" />
        </mxCell>
        <mxCell id="33aO2TNAjWirLoOw_Xwe-36" value="" style="endArrow=classic;startArrow=classic;html=1;rounded=0;strokeWidth=0;strokeColor=#FF0000;" edge="1" parent="1">
          <mxGeometry width="50" height="50" relative="1" as="geometry">
            <mxPoint x="411" y="274" as="sourcePoint" />
            <mxPoint x="421" y="274" as="targetPoint" />
          </mxGeometry>
        </mxCell>
        <mxCell id="33aO2TNAjWirLoOw_Xwe-39" value="" style="endArrow=classic;startArrow=classic;html=1;rounded=0;fontColor=#FF0000;strokeColor=#FF0000;" edge="1" parent="1">
          <mxGeometry width="50" height="50" relative="1" as="geometry">
            <mxPoint x="430" y="300" as="sourcePoint" />
            <mxPoint x="430" y="270" as="targetPoint" />
          </mxGeometry>
        </mxCell>
        <mxCell id="33aO2TNAjWirLoOw_Xwe-40" value="3.25cm" style="text;html=1;align=center;verticalAlign=middle;resizable=0;points=[];autosize=1;strokeColor=none;fillColor=none;fontSize=8;fontColor=#FF0000;" vertex="1" parent="1">
          <mxGeometry x="420" y="275" width="50" height="20" as="geometry" />
        </mxCell>
        <mxCell id="33aO2TNAjWirLoOw_Xwe-41" value="12.1cm" style="text;html=1;align=center;verticalAlign=middle;resizable=0;points=[];autosize=1;strokeColor=none;fillColor=none;fontSize=8;fontColor=#FF0000;" vertex="1" parent="1">
          <mxGeometry x="470" y="180" width="50" height="20" as="geometry" />
        </mxCell>
        <mxCell id="33aO2TNAjWirLoOw_Xwe-42" value="" style="endArrow=classic;startArrow=classic;html=1;rounded=0;strokeWidth=0;" edge="1" parent="1">
          <mxGeometry width="50" height="50" relative="1" as="geometry">
            <mxPoint x="730" y="366" as="sourcePoint" />
            <mxPoint x="740" y="366" as="targetPoint" />
          </mxGeometry>
        </mxCell>
        <mxCell id="33aO2TNAjWirLoOw_Xwe-44" value="5mm" style="text;html=1;align=center;verticalAlign=middle;resizable=0;points=[];autosize=1;strokeColor=none;fillColor=none;fontSize=9;" vertex="1" parent="1">
          <mxGeometry x="740" y="100" width="40" height="20" as="geometry" />
        </mxCell>
        <mxCell id="33aO2TNAjWirLoOw_Xwe-45" value="" style="endArrow=classic;startArrow=classic;html=1;rounded=0;strokeWidth=0;" edge="1" parent="1">
          <mxGeometry width="50" height="50" relative="1" as="geometry">
            <mxPoint x="746" y="105" as="sourcePoint" />
            <mxPoint x="746" y="115" as="targetPoint" />
          </mxGeometry>
        </mxCell>
        <mxCell id="33aO2TNAjWirLoOw_Xwe-46" value="" style="rounded=0;whiteSpace=wrap;html=1;" vertex="1" parent="1">
          <mxGeometry x="710" y="350" width="20" height="10" as="geometry" />
        </mxCell>
        <mxCell id="33aO2TNAjWirLoOw_Xwe-47" value="" style="rounded=0;whiteSpace=wrap;html=1;" vertex="1" parent="1">
          <mxGeometry x="710" y="260" width="20" height="90" as="geometry" />
        </mxCell>
        <mxCell id="33aO2TNAjWirLoOw_Xwe-48" value="" style="endArrow=classic;startArrow=classic;html=1;rounded=0;strokeWidth=0;" edge="1" parent="1">
          <mxGeometry width="50" height="50" relative="1" as="geometry">
            <mxPoint x="710" y="366" as="sourcePoint" />
            <mxPoint x="730" y="366" as="targetPoint" />
          </mxGeometry>
        </mxCell>
        <mxCell id="33aO2TNAjWirLoOw_Xwe-49" value="10mm" style="text;html=1;align=center;verticalAlign=middle;resizable=0;points=[];autosize=1;strokeColor=none;fillColor=none;fontSize=6;" vertex="1" parent="1">
          <mxGeometry x="699" y="363" width="40" height="20" as="geometry" />
        </mxCell>
        <mxCell id="33aO2TNAjWirLoOw_Xwe-50" value="" style="endArrow=classic;startArrow=classic;html=1;rounded=0;" edge="1" parent="1">
          <mxGeometry width="50" height="50" relative="1" as="geometry">
            <mxPoint x="703" y="360" as="sourcePoint" />
            <mxPoint x="703" y="260" as="targetPoint" />
          </mxGeometry>
        </mxCell>
        <mxCell id="33aO2TNAjWirLoOw_Xwe-51" value="4.5cm" style="text;html=1;align=center;verticalAlign=middle;resizable=0;points=[];autosize=1;strokeColor=none;fillColor=none;fontSize=8;" vertex="1" parent="1">
          <mxGeometry x="661" y="299" width="50" height="20" as="geometry" />
        </mxCell>
        <mxCell id="33aO2TNAjWirLoOw_Xwe-52" value="" style="rounded=0;whiteSpace=wrap;html=1;" vertex="1" parent="1">
          <mxGeometry x="94" y="100" width="110" height="200" as="geometry" />
        </mxCell>
        <mxCell id="33aO2TNAjWirLoOw_Xwe-53" value="" style="rounded=0;whiteSpace=wrap;html=1;" vertex="1" parent="1">
          <mxGeometry x="94" y="100" width="110" height="10" as="geometry" />
        </mxCell>
        <mxCell id="33aO2TNAjWirLoOw_Xwe-54" value="" style="ellipse;whiteSpace=wrap;html=1;aspect=fixed;fillColor=#000000;" vertex="1" parent="1">
          <mxGeometry x="114" y="140" width="10" height="10" as="geometry" />
        </mxCell>
        <mxCell id="33aO2TNAjWirLoOw_Xwe-55" value="" style="endArrow=classic;startArrow=classic;html=1;rounded=0;strokeColor=#FF0000;" edge="1" parent="1">
          <mxGeometry width="50" height="50" relative="1" as="geometry">
            <mxPoint x="211" y="300" as="sourcePoint" />
            <mxPoint x="211" y="111" as="targetPoint" />
          </mxGeometry>
        </mxCell>
        <mxCell id="33aO2TNAjWirLoOw_Xwe-56" value="" style="ellipse;whiteSpace=wrap;html=1;aspect=fixed;fillColor=#000000;" vertex="1" parent="1">
          <mxGeometry x="174" y="140" width="10" height="10" as="geometry" />
        </mxCell>
        <mxCell id="33aO2TNAjWirLoOw_Xwe-57" value="" style="ellipse;whiteSpace=wrap;html=1;aspect=fixed;fillColor=#000000;" vertex="1" parent="1">
          <mxGeometry x="174" y="200" width="10" height="10" as="geometry" />
        </mxCell>
        <mxCell id="33aO2TNAjWirLoOw_Xwe-59" value="" style="ellipse;whiteSpace=wrap;html=1;aspect=fixed;fillColor=#000000;" vertex="1" parent="1">
          <mxGeometry x="114" y="200" width="10" height="10" as="geometry" />
        </mxCell>
        <mxCell id="33aO2TNAjWirLoOw_Xwe-65" value="" style="endArrow=classic;startArrow=classic;html=1;rounded=0;" edge="1" parent="1">
          <mxGeometry width="50" height="50" relative="1" as="geometry">
            <mxPoint x="204" y="320" as="sourcePoint" />
            <mxPoint x="94" y="320" as="targetPoint" />
          </mxGeometry>
        </mxCell>
        <mxCell id="33aO2TNAjWirLoOw_Xwe-66" value="6cm" style="text;html=1;align=center;verticalAlign=middle;resizable=0;points=[];autosize=1;strokeColor=none;fillColor=none;" vertex="1" parent="1">
          <mxGeometry x="124" y="320" width="50" height="30" as="geometry" />
        </mxCell>
        <mxCell id="33aO2TNAjWirLoOw_Xwe-67" value="Front View" style="text;html=1;align=center;verticalAlign=middle;resizable=0;points=[];autosize=1;strokeColor=none;fillColor=none;" vertex="1" parent="1">
          <mxGeometry x="109" y="50" width="80" height="30" as="geometry" />
        </mxCell>
        <mxCell id="33aO2TNAjWirLoOw_Xwe-68" value="" style="ellipse;whiteSpace=wrap;html=1;aspect=fixed;fillColor=#000000;" vertex="1" parent="1">
          <mxGeometry x="140" y="163" width="20" height="20" as="geometry" />
        </mxCell>
        <mxCell id="33aO2TNAjWirLoOw_Xwe-69" value="1cm" style="text;html=1;align=center;verticalAlign=middle;resizable=0;points=[];autosize=1;strokeColor=none;fillColor=none;fontSize=7;" vertex="1" parent="1">
          <mxGeometry x="129" y="145" width="40" height="20" as="geometry" />
        </mxCell>
        <mxCell id="33aO2TNAjWirLoOw_Xwe-70" value="" style="endArrow=classic;startArrow=classic;html=1;rounded=0;strokeWidth=0;" edge="1" parent="1">
          <mxGeometry width="50" height="50" relative="1" as="geometry">
            <mxPoint x="140" y="160" as="sourcePoint" />
            <mxPoint x="160" y="160" as="targetPoint" />
          </mxGeometry>
        </mxCell>
        <mxCell id="33aO2TNAjWirLoOw_Xwe-71" value="" style="endArrow=classic;startArrow=classic;html=1;rounded=0;" edge="1" parent="1">
          <mxGeometry width="50" height="50" relative="1" as="geometry">
            <mxPoint x="123" y="201" as="sourcePoint" />
            <mxPoint x="143" y="181" as="targetPoint" />
          </mxGeometry>
        </mxCell>
        <mxCell id="33aO2TNAjWirLoOw_Xwe-72" value="1cm" style="text;html=1;align=center;verticalAlign=middle;resizable=0;points=[];autosize=1;strokeColor=none;fillColor=none;fontSize=7;" vertex="1" parent="1">
          <mxGeometry x="102" y="178" width="40" height="20" as="geometry" />
        </mxCell>
        <mxCell id="33aO2TNAjWirLoOw_Xwe-73" value="" style="endArrow=classic;startArrow=classic;html=1;rounded=0;strokeWidth=0;" edge="1" parent="1">
          <mxGeometry width="50" height="50" relative="1" as="geometry">
            <mxPoint x="89" y="98" as="sourcePoint" />
            <mxPoint x="89" y="110" as="targetPoint" />
          </mxGeometry>
        </mxCell>
        <mxCell id="33aO2TNAjWirLoOw_Xwe-75" value="1/8&quot;" style="text;html=1;align=center;verticalAlign=middle;resizable=0;points=[];autosize=1;strokeColor=none;fillColor=none;" vertex="1" parent="1">
          <mxGeometry x="54" y="90" width="40" height="30" as="geometry" />
        </mxCell>
        <mxCell id="33aO2TNAjWirLoOw_Xwe-79" value="" style="ellipse;whiteSpace=wrap;html=1;aspect=fixed;fillColor=#FF0000;" vertex="1" parent="1">
          <mxGeometry x="145" y="260" width="10" height="10" as="geometry" />
        </mxCell>
        <mxCell id="33aO2TNAjWirLoOw_Xwe-81" value="8mm" style="text;html=1;align=center;verticalAlign=middle;resizable=0;points=[];autosize=1;strokeColor=none;fillColor=none;fontSize=6;fontColor=#FF0000;" vertex="1" parent="1">
          <mxGeometry x="129" y="240" width="40" height="20" as="geometry" />
        </mxCell>
        <mxCell id="33aO2TNAjWirLoOw_Xwe-83" value="" style="endArrow=classic;startArrow=classic;html=1;rounded=0;strokeWidth=0;strokeColor=#FF0000;" edge="1" parent="1">
          <mxGeometry width="50" height="50" relative="1" as="geometry">
            <mxPoint x="145" y="256" as="sourcePoint" />
            <mxPoint x="155" y="256" as="targetPoint" />
          </mxGeometry>
        </mxCell>
        <mxCell id="33aO2TNAjWirLoOw_Xwe-86" value="12.1cm" style="text;html=1;align=center;verticalAlign=middle;resizable=0;points=[];autosize=1;strokeColor=none;fillColor=none;fontSize=8;fontColor=#FF0000;" vertex="1" parent="1">
          <mxGeometry x="204" y="180" width="50" height="20" as="geometry" />
        </mxCell>
        <mxCell id="33aO2TNAjWirLoOw_Xwe-87" value="" style="rounded=0;whiteSpace=wrap;html=1;strokeColor=#FF0000;" vertex="1" parent="1">
          <mxGeometry x="174" y="230" width="30" height="70" as="geometry" />
        </mxCell>
        <mxCell id="33aO2TNAjWirLoOw_Xwe-88" value="" style="rounded=0;whiteSpace=wrap;html=1;strokeColor=#FF0000;" vertex="1" parent="1">
          <mxGeometry x="94" y="230" width="30" height="70" as="geometry" />
        </mxCell>
        <mxCell id="33aO2TNAjWirLoOw_Xwe-89" value="1.5cm" style="text;html=1;align=center;verticalAlign=middle;resizable=0;points=[];autosize=1;strokeColor=none;fillColor=none;fontSize=7;fontColor=#FF0000;" vertex="1" parent="1">
          <mxGeometry x="168" y="212" width="40" height="20" as="geometry" />
        </mxCell>
        <mxCell id="33aO2TNAjWirLoOw_Xwe-90" value="" style="endArrow=classic;startArrow=classic;html=1;rounded=0;strokeWidth=0;strokeColor=#FF0000;" edge="1" parent="1">
          <mxGeometry width="50" height="50" relative="1" as="geometry">
            <mxPoint x="204" y="226" as="sourcePoint" />
            <mxPoint x="174" y="226" as="targetPoint" />
          </mxGeometry>
        </mxCell>
        <mxCell id="33aO2TNAjWirLoOw_Xwe-91" value="1.5cm" style="text;html=1;align=center;verticalAlign=middle;resizable=0;points=[];autosize=1;strokeColor=none;fillColor=none;fontSize=7;fontColor=#FF0000;" vertex="1" parent="1">
          <mxGeometry x="88" y="212" width="40" height="20" as="geometry" />
        </mxCell>
        <mxCell id="33aO2TNAjWirLoOw_Xwe-92" value="" style="endArrow=classic;startArrow=classic;html=1;rounded=0;strokeWidth=0;strokeColor=#FF0000;" edge="1" parent="1">
          <mxGeometry width="50" height="50" relative="1" as="geometry">
            <mxPoint x="124" y="226" as="sourcePoint" />
            <mxPoint x="94" y="226" as="targetPoint" />
          </mxGeometry>
        </mxCell>
        <mxCell id="33aO2TNAjWirLoOw_Xwe-93" value="3cm" style="text;html=1;align=center;verticalAlign=middle;resizable=0;points=[];autosize=1;strokeColor=none;fillColor=none;fontSize=7;fontColor=#FF0000;" vertex="1" parent="1">
          <mxGeometry x="127" y="216" width="40" height="20" as="geometry" />
        </mxCell>
        <mxCell id="33aO2TNAjWirLoOw_Xwe-94" value="" style="endArrow=classic;startArrow=classic;html=1;rounded=0;strokeWidth=0;strokeColor=#FF0000;" edge="1" parent="1">
          <mxGeometry width="50" height="50" relative="1" as="geometry">
            <mxPoint x="174" y="230" as="sourcePoint" />
            <mxPoint x="124" y="230" as="targetPoint" />
          </mxGeometry>
        </mxCell>
        <mxCell id="33aO2TNAjWirLoOw_Xwe-95" value="" style="endArrow=classic;startArrow=classic;html=1;rounded=0;strokeWidth=1;strokeColor=#FF0000;" edge="1" parent="1">
          <mxGeometry width="50" height="50" relative="1" as="geometry">
            <mxPoint x="89" y="300" as="sourcePoint" />
            <mxPoint x="89" y="230" as="targetPoint" />
          </mxGeometry>
        </mxCell>
        <mxCell id="33aO2TNAjWirLoOw_Xwe-96" value="5.25cm" style="text;html=1;align=center;verticalAlign=middle;resizable=0;points=[];autosize=1;strokeColor=none;fillColor=none;fontSize=7;fontColor=#FF0000;" vertex="1" parent="1">
          <mxGeometry x="50" y="250" width="50" height="20" as="geometry" />
        </mxCell>
        <mxCell id="33aO2TNAjWirLoOw_Xwe-97" value="" style="rounded=0;whiteSpace=wrap;html=1;strokeColor=#FF0000;" vertex="1" parent="1">
          <mxGeometry x="124" y="280" width="50" height="20" as="geometry" />
        </mxCell>
        <mxCell id="33aO2TNAjWirLoOw_Xwe-99" value="1cm" style="text;html=1;align=center;verticalAlign=middle;resizable=0;points=[];autosize=1;strokeColor=none;fillColor=none;fontSize=7;fontColor=#FF0000;" vertex="1" parent="1">
          <mxGeometry x="134" y="280" width="40" height="20" as="geometry" />
        </mxCell>
        <mxCell id="33aO2TNAjWirLoOw_Xwe-98" value="" style="endArrow=classic;startArrow=classic;html=1;rounded=0;strokeWidth=0;strokeColor=#FF0000;" edge="1" parent="1">
          <mxGeometry width="50" height="50" relative="1" as="geometry">
            <mxPoint x="164" y="300" as="sourcePoint" />
            <mxPoint x="164" y="280" as="targetPoint" />
          </mxGeometry>
        </mxCell>
        <mxCell id="33aO2TNAjWirLoOw_Xwe-100" value="" style="rounded=0;whiteSpace=wrap;html=1;strokeColor=#FF0000;" vertex="1" parent="1">
          <mxGeometry x="94" y="230" width="10" height="70" as="geometry" />
        </mxCell>
        <mxCell id="33aO2TNAjWirLoOw_Xwe-102" value="5mm" style="text;html=1;align=center;verticalAlign=middle;resizable=0;points=[];autosize=1;strokeColor=none;fillColor=none;fontSize=6;fontColor=#FF0000;" vertex="1" parent="1">
          <mxGeometry x="80" y="299" width="40" height="20" as="geometry" />
        </mxCell>
        <mxCell id="33aO2TNAjWirLoOw_Xwe-101" value="" style="rounded=0;whiteSpace=wrap;html=1;strokeColor=#FF0000;" vertex="1" parent="1">
          <mxGeometry x="194" y="230" width="10" height="70" as="geometry" />
        </mxCell>
        <mxCell id="33aO2TNAjWirLoOw_Xwe-103" value="" style="endArrow=classic;startArrow=classic;html=1;rounded=0;strokeWidth=0;strokeColor=#FF0000;" edge="1" parent="1">
          <mxGeometry width="50" height="50" relative="1" as="geometry">
            <mxPoint x="104" y="302" as="sourcePoint" />
            <mxPoint x="94" y="302" as="targetPoint" />
          </mxGeometry>
        </mxCell>
        <mxCell id="33aO2TNAjWirLoOw_Xwe-104" value="5mm" style="text;html=1;align=center;verticalAlign=middle;resizable=0;points=[];autosize=1;strokeColor=none;fillColor=none;fontSize=6;fontColor=#FF0000;" vertex="1" parent="1">
          <mxGeometry x="180" y="300" width="40" height="20" as="geometry" />
        </mxCell>
        <mxCell id="33aO2TNAjWirLoOw_Xwe-105" value="" style="endArrow=classic;startArrow=classic;html=1;rounded=0;strokeWidth=0;strokeColor=#FF0000;" edge="1" parent="1">
          <mxGeometry width="50" height="50" relative="1" as="geometry">
            <mxPoint x="204" y="303" as="sourcePoint" />
            <mxPoint x="194" y="303" as="targetPoint" />
          </mxGeometry>
        </mxCell>
        <mxCell id="33aO2TNAjWirLoOw_Xwe-106" value="" style="rounded=0;whiteSpace=wrap;html=1;fillColor=#FF0000;" vertex="1" parent="1">
          <mxGeometry x="94" y="110" width="20" height="100" as="geometry" />
        </mxCell>
        <mxCell id="33aO2TNAjWirLoOw_Xwe-107" value="" style="rounded=0;whiteSpace=wrap;html=1;fillColor=#FF0000;" vertex="1" parent="1">
          <mxGeometry x="184" y="110" width="20" height="100" as="geometry" />
        </mxCell>
        <mxCell id="33aO2TNAjWirLoOw_Xwe-108" value="" style="rounded=0;whiteSpace=wrap;html=1;fillColor=#FF0000;" vertex="1" parent="1">
          <mxGeometry x="114" y="110" width="70" height="40" as="geometry" />
        </mxCell>
        <mxCell id="33aO2TNAjWirLoOw_Xwe-109" value="" style="rounded=0;whiteSpace=wrap;html=1;rotation=-140;" vertex="1" parent="1">
          <mxGeometry x="610" y="150" width="140" height="10" as="geometry" />
        </mxCell>
      </root>
    </mxGraphModel>
  </diagram>
</mxfile>
